<svg width="12" height="12" viewBox="0 0 12 12" fill="none" xmlns="http://www.w3.org/2000/svg">
<path fill-rule="evenodd" clip-rule="evenodd" d="M0.609375 0.609375H11.3906V11.3906H0.609375V0.609375ZM8.15586 4.18086C9.64648 4.18086 9.70273 5.54961 9.70273 5.54961H9.71211V6.45898H7.46211C7.64023 8.25898 9.44961 7.39648 9.44961 7.39648V8.15586C9.44961 8.15586 9.32773 8.39961 8.06211 8.39961C6.79648 8.39961 6.53398 6.68398 6.53398 6.68398V6.24336C6.53398 6.24336 6.65586 4.18086 8.15586 4.18086ZM8.15586 4.91211C7.45273 4.99648 7.45273 5.77461 7.45273 5.77461H8.85898C8.85898 5.77461 8.92461 4.91211 8.15586 4.91211ZM3.59961 2.80273H4.73398L6.35586 8.30586H5.39023L4.96836 6.79648H3.39336L2.98086 8.30586H2.09961L3.59961 3.15898V2.80273ZM4.18086 3.61836L3.58086 5.91523H4.78086L4.18086 3.61836Z" fill="white"/>
</svg>
