<svg width="12" height="12" viewBox="0 0 12 12" fill="none" xmlns="http://www.w3.org/2000/svg">
<path fill-rule="evenodd" clip-rule="evenodd" d="M9.1875 0H2.8125C1.2592 0 0 1.2592 0 2.8125V9.1875C0 10.7408 1.2592 12 2.8125 12H9.1875C10.7408 12 12 10.7408 12 9.1875V2.8125C12 1.2592 10.7408 0 9.1875 0ZM6.22437 6.49261C6.24298 6.15877 6.40568 5.86462 6.65112 5.65613C6.89182 5.45133 7.21582 5.32617 7.56935 5.32617C7.92251 5.32617 8.24651 5.45133 8.48735 5.65613C8.73265 5.86462 8.89535 6.15877 8.91415 6.49223C8.93276 6.83527 8.79556 7.15392 8.55485 7.39017C8.30937 7.63045 7.96029 7.7812 7.56935 7.7812C7.17842 7.7812 6.82859 7.63045 6.58329 7.39017C6.34245 7.15392 6.20557 6.83527 6.22437 6.49261ZM4.18828 7.75093C4.12608 7.55265 4.08464 7.29877 4.08235 7.16813C4.08005 7.03801 4.10855 6.82121 4.10855 6.82121L2.15578 8.42705C1.81477 8.7039 1.356 8.70338 1.14024 8.42546C0.927658 8.15218 1.03678 7.72037 1.37428 7.46068C1.37739 7.4582 1.38087 7.45564 1.38431 7.45311C1.38554 7.45221 1.38677 7.4513 1.38797 7.45041L4.96594 4.69083L2.96086 4.69473L2.96138 4.69351C2.62139 4.69224 2.39935 4.46204 2.46328 4.18454C2.52549 3.9121 2.83978 3.69657 3.16678 3.69619H3.17203L7.12796 3.69198L5.83003 2.63148L5.83092 2.63058C5.62889 2.46408 5.65486 2.20018 5.88188 2.04057C6.10641 1.88274 6.44972 1.88218 6.65391 2.03968C6.65577 2.04087 6.65734 2.04221 6.65894 2.04357C6.65992 2.0444 6.6609 2.04524 6.66197 2.04605L9.77381 4.44685L9.77311 4.44741C10.0815 4.68769 10.3408 4.97316 10.542 5.29923C10.7619 5.65407 10.9048 6.04337 10.9635 6.45826C10.9935 6.66979 11.0004 6.88395 10.984 7.09697C10.9668 7.31534 10.9252 7.53108 10.8598 7.74015C10.7288 8.15977 10.5074 8.54869 10.199 8.89229C9.88294 9.24413 9.49341 9.52782 9.04308 9.73032C8.56974 9.94252 8.05688 10.052 7.52503 10.0527C6.9923 10.0536 6.47944 9.94623 6.0061 9.73562C5.55577 9.53508 5.16591 9.25262 4.84927 8.90091C4.54078 8.55877 4.31906 8.17055 4.18828 7.75093ZM7.52503 8.54077C8.13455 8.53955 8.69785 8.30597 9.10017 7.89408C9.29677 7.6928 9.44067 7.46227 9.52992 7.21599C9.61745 6.97437 9.65127 6.71657 9.62902 6.46055C9.6074 6.21092 9.53368 5.9686 9.4126 5.74923C9.29522 5.53529 9.13374 5.3423 8.93452 5.17918C8.54302 4.85996 8.04544 4.68821 7.52414 4.68891C7.00336 4.68962 6.50546 4.86301 6.11433 5.18326C5.91474 5.34708 5.75311 5.54073 5.63574 5.75508C5.51625 5.9731 5.44139 6.21408 5.42016 6.46669C5.39758 6.72288 5.43127 6.9809 5.51888 7.22269C5.60794 7.46827 5.75241 7.6988 5.949 7.89919C6.35133 8.31038 6.91463 8.54185 7.52503 8.54077Z" fill="#F4F2ED"/>
</svg>
