<svg width="12" height="12" viewBox="0 0 12 12" fill="none" xmlns="http://www.w3.org/2000/svg">
<g clip-path="url(#clip0_429_2156)">
<path d="M4.26562 12.0938C5.38125 12.0938 6.28125 11.1937 6.28125 10.0781V8.0625H4.26562C3.15 8.0625 2.25 8.9625 2.25 10.0781C2.25 11.1937 3.15 12.0938 4.26562 12.0938Z" fill="white"/>
<path d="M2.25 6.04688C2.25 4.93125 3.15 4.03125 4.26562 4.03125H6.28125V8.0625H4.26562C3.15 8.0625 2.25 7.1625 2.25 6.04688Z" fill="white"/>
<path d="M2.25 2.01562C2.25 0.9 3.15 0 4.26562 0H6.28125V4.03125H4.26562C3.15 4.03125 2.25 3.13125 2.25 2.01562Z" fill="white"/>
<path d="M6.28125 0H8.29688C9.4125 0 10.3125 0.9 10.3125 2.01562C10.3125 3.13125 9.4125 4.03125 8.29688 4.03125H6.28125V0Z" fill="white"/>
<path d="M10.3125 6.04688C10.3125 7.1625 9.4125 8.0625 8.29688 8.0625C7.18125 8.0625 6.28125 7.1625 6.28125 6.04688C6.28125 4.93125 7.18125 4.03125 8.29688 4.03125C9.4125 4.03125 10.3125 4.93125 10.3125 6.04688Z" fill="white"/>
</g>
<defs>
<clipPath id="clip0_429_2156">
<rect width="12" height="12" fill="white"/>
</clipPath>
</defs>
</svg>
