<svg width="12" height="12" viewBox="0 0 12 12" fill="none" xmlns="http://www.w3.org/2000/svg">
<path fill-rule="evenodd" clip-rule="evenodd" d="M2.8125 0H9.1875C10.7408 0 12 1.2592 12 2.8125V9.1875C12 10.7408 10.7408 12 9.1875 12H2.8125C1.2592 12 0 10.7408 0 9.1875V2.8125C0 1.2592 1.2592 0 2.8125 0ZM3.94032 7.14131H5.80032L6.21034 8.33133C6.22032 8.36634 6.25534 8.39133 6.29031 8.38631H7.33534C7.38531 8.38631 7.40031 8.36133 7.38531 8.30634L5.56032 3.15633C5.55531 3.13134 5.53534 3.11634 5.49531 3.11634H4.20034C4.17531 3.12131 4.15534 3.14634 4.16031 3.17133C4.16031 3.28134 4.15032 3.39131 4.13031 3.49631C4.11623 3.53859 4.10463 3.57841 4.09375 3.61572C4.0892 3.63136 4.08477 3.64656 4.08034 3.66131L2.47032 8.29631C2.45532 8.35631 2.47032 8.38631 2.52531 8.38631H3.46534C3.51034 8.39133 3.55032 8.36133 3.56031 8.31633L3.94032 7.14131ZM5.50032 6.12633H4.23034C4.31237 5.89582 4.38575 5.66233 4.45032 5.42634C4.49989 5.27144 4.54754 5.11656 4.59445 4.96406C4.62327 4.8704 4.6518 4.77764 4.68034 4.68633C4.75032 4.47136 4.80531 4.25634 4.85031 4.04133H4.86034C4.87976 4.10799 4.89921 4.17775 4.9195 4.25059C4.93574 4.30887 4.95253 4.36912 4.97031 4.43133C5.01034 4.57631 5.05534 4.72134 5.10531 4.87631C5.13031 4.95382 5.15407 5.03007 5.17782 5.10633C5.20158 5.18258 5.22533 5.25884 5.25034 5.33634C5.29534 5.48634 5.34034 5.63133 5.38534 5.76633C5.43034 5.89631 5.47032 6.02133 5.50032 6.12633ZM8.05534 3.81633C8.17534 3.93131 8.33532 3.99633 8.50032 3.99131C8.67034 4.00134 8.84035 3.93633 8.95534 3.81633C9.07534 3.69131 9.13534 3.52631 9.13032 3.35634C9.13532 3.19218 9.07613 3.03254 8.96532 2.91131C8.85535 2.79633 8.70535 2.73633 8.51035 2.73633C8.34535 2.73633 8.18532 2.79633 8.06532 2.91131C7.94532 3.02634 7.88035 3.18633 7.88532 3.35634C7.88035 3.52631 7.94035 3.69131 8.05534 3.81633ZM7.94035 4.48134V8.33133C7.94035 8.38134 7.96534 8.41134 8.01535 8.41134H8.99532C9.04032 8.41134 9.06034 8.38631 9.06034 8.33133V4.48134C9.06034 4.43634 9.04032 4.41131 8.99532 4.41131H8.00532C7.96032 4.41131 7.94035 4.43133 7.94035 4.48134Z" fill="white"/>
</svg>
