<svg width="12" height="12" viewBox="0 0 12 12" fill="none" xmlns="http://www.w3.org/2000/svg">
<path fill-rule="evenodd" clip-rule="evenodd" d="M9.87497 0.150391H2.12503C0.949969 0.150391 0 1.10036 0 2.27542V9.72536C0 10.9004 0.949969 11.8504 2.12503 11.8504H9.87497C11.05 11.8504 12 10.9004 12 9.72536V2.27542C12 1.10036 11.05 0.150391 9.87497 0.150391ZM3.84526 3.13006C4.00023 3.125 4.15023 3.125 4.30023 3.125C4.7102 3.125 5.05013 3.17497 5.33016 3.27997C5.58117 3.36523 5.81005 3.50531 6.0002 3.69003C6.16129 3.8517 6.28579 4.04608 6.36526 4.26003C6.44026 4.47003 6.4802 4.685 6.4802 4.91C6.4802 5.34 6.3802 5.695 6.1802 5.975C5.98023 6.25503 5.7002 6.46503 5.37516 6.58503C5.03523 6.71 4.66023 6.755 4.25016 6.755C4.13016 6.755 4.0502 6.755 4.00023 6.75003C3.95016 6.74506 3.88013 6.74506 3.78516 6.74506V8.35006C3.79023 8.38503 3.7652 8.41503 3.73023 8.42009H2.7602C2.72016 8.42009 2.7002 8.40003 2.7002 8.35503V3.21003C2.7002 3.17497 2.7152 3.155 2.75016 3.155C2.8352 3.155 2.91516 3.155 3.0302 3.15003C3.09199 3.14747 3.15511 3.14623 3.22023 3.14495C3.28157 3.14374 3.34469 3.1425 3.41016 3.14009C3.48062 3.13745 3.55382 3.13619 3.62974 3.13488C3.69929 3.13368 3.77113 3.13244 3.84526 3.13006ZM4.92516 4.20997C4.76335 4.14434 4.58991 4.11322 4.41179 4.10984C4.38635 4.10934 4.36082 4.10941 4.3352 4.11003C4.20516 4.11003 4.09023 4.11003 3.99526 4.11509C3.89523 4.11003 3.8252 4.115 3.79023 4.12006V5.80006C3.79538 5.80043 3.80051 5.80079 3.80561 5.80116C3.86979 5.80574 3.92955 5.81 3.98513 5.81H4.25016C4.44516 5.81 4.64016 5.78009 4.82523 5.72009C4.98516 5.67509 5.12513 5.58003 5.2352 5.45506C5.3402 5.33009 5.39026 5.16003 5.39026 4.94009C5.39487 4.78382 5.35497 4.62945 5.27523 4.49497C5.1902 4.36503 5.0702 4.265 4.92516 4.20997ZM7.72023 4.54006C7.95516 4.42006 8.2502 4.36513 8.60523 4.36513C8.8127 4.36519 9.01989 4.38014 9.2252 4.41003C9.37283 4.43005 9.51732 4.4687 9.65523 4.52506C9.67519 4.53003 9.69516 4.55009 9.7052 4.57006L9.70546 4.57114C9.71035 4.59075 9.71523 4.61036 9.71523 4.63006V5.44503C9.71528 5.45476 9.71305 5.46436 9.7087 5.47305C9.70435 5.48175 9.69801 5.4893 9.6902 5.49509C9.6452 5.50503 9.62016 5.50503 9.6002 5.49509C9.4502 5.41503 9.29026 5.36 9.1202 5.32503C8.93513 5.285 8.75016 5.25997 8.56013 5.25997C8.4602 5.255 8.3552 5.27009 8.26013 5.29503C8.19516 5.31003 8.14023 5.34509 8.10516 5.39506C8.08023 5.43509 8.06523 5.48506 8.06523 5.53006C8.06523 5.57506 8.0852 5.61997 8.1152 5.66C8.1602 5.71503 8.2202 5.76003 8.28516 5.795C8.40111 5.85502 8.51956 5.91007 8.6402 5.96C8.91033 6.05094 9.16878 6.17348 9.41016 6.32506C9.57516 6.43006 9.71016 6.57003 9.80523 6.74009C9.8856 6.89958 9.9251 7.07654 9.92016 7.25506C9.92428 7.49139 9.85625 7.72335 9.72516 7.92003C9.5852 8.12009 9.3902 8.27506 9.1652 8.36506C8.92023 8.47006 8.62013 8.525 8.26013 8.525C8.03016 8.525 7.80526 8.50503 7.58026 8.46003C7.40391 8.42956 7.2324 8.37575 7.07026 8.3C7.0352 8.28003 7.01026 8.24506 7.01523 8.20503V7.33503C7.01523 7.32003 7.0202 7.30006 7.0352 7.29012C7.0502 7.28009 7.0652 7.28506 7.08019 7.29509C7.27277 7.40867 7.48197 7.49133 7.70016 7.54006C7.8902 7.59003 8.09026 7.61506 8.29023 7.61506C8.48026 7.61506 8.61526 7.59003 8.70526 7.54503C8.78523 7.51006 8.84026 7.42503 8.84026 7.33503C8.84026 7.265 8.80023 7.20003 8.72026 7.13497C8.6402 7.07 8.4752 6.995 8.23023 6.90003C7.97889 6.8115 7.74021 6.69047 7.52026 6.54003C7.36355 6.4284 7.23371 6.28322 7.1402 6.11506C7.06041 5.95714 7.02089 5.78194 7.02516 5.60506C7.02516 5.39 7.08526 5.18506 7.19523 5C7.3202 4.80003 7.50526 4.64009 7.72023 4.54006Z" fill="white"/>
</svg>
