<svg width="12" height="12" viewBox="0 0 12 12" fill="none" xmlns="http://www.w3.org/2000/svg">
<path fill-rule="evenodd" clip-rule="evenodd" d="M2.8125 0H9.1875C10.7408 0 12 1.2592 12 2.8125V9.1875C12 10.7408 10.7408 12 9.1875 12H2.8125C1.2592 12 0 10.7408 0 9.1875V2.8125C0 1.2592 1.2592 0 2.8125 0ZM2.53125 3.41311V8.55811C2.53125 8.60311 2.55127 8.62313 2.59125 8.62313H3.56123C3.59625 8.61811 3.62123 8.58811 3.61627 8.55314V6.94814H3.61632C3.71126 6.94814 3.78128 6.94814 3.83123 6.95311C3.88125 6.95812 3.96127 6.95813 4.08127 6.95813C4.49123 6.95813 4.86623 6.91313 5.20627 6.78811C5.53125 6.66811 5.81123 6.45811 6.01125 6.17813C6.21127 5.89814 6.31125 5.54311 6.31125 5.11312C6.31125 4.88812 6.27127 4.67311 6.19627 4.46311C6.11684 4.24915 5.99236 4.05476 5.83125 3.89311C5.64112 3.70842 5.41226 3.56837 5.16127 3.48314C4.88123 3.37814 4.54125 3.32812 4.13123 3.32812C3.98123 3.32812 3.83123 3.32812 3.67627 3.33314C3.60179 3.33553 3.52964 3.33677 3.45979 3.33797C3.38425 3.33927 3.31141 3.34052 3.24127 3.34312C3.17547 3.34557 3.11204 3.34682 3.05041 3.34804C2.98559 3.34932 2.92276 3.35056 2.86125 3.35311C2.74627 3.35812 2.66625 3.35812 2.58127 3.35812C2.54625 3.35812 2.53125 3.37814 2.53125 3.41311ZM3.62123 6.00811V4.32811C3.65625 4.32314 3.72623 4.31812 3.82627 4.32314C3.92123 4.31813 4.03624 4.31813 4.16621 4.31813H4.16625C4.37123 4.31311 4.57125 4.34311 4.75627 4.41811C4.90125 4.47314 5.02125 4.57312 5.10623 4.70311C5.18606 4.83752 5.22596 4.99188 5.22127 5.14814C5.22127 5.36812 5.17125 5.53814 5.06625 5.66311C4.95623 5.78813 4.81627 5.88314 4.65623 5.92814C4.47127 5.98814 4.27627 6.01814 4.08127 6.01814H3.81623C3.76058 6.01814 3.70065 6.01382 3.63637 6.0092C3.63135 6.00884 3.62631 6.00847 3.62123 6.00811ZM7.90627 4.62314H7.03125C7.02628 4.61812 7.01625 4.61812 7.01625 4.62314C6.99127 4.62811 6.97627 4.65314 6.98128 4.67813L6.98247 4.69184C6.99205 4.80188 7.00125 4.90771 7.00125 5.01811C7.00376 5.08312 7.00501 5.14811 7.00627 5.2131C7.00752 5.27811 7.00877 5.34311 7.01128 5.40811C7.01625 5.53813 7.01625 5.66309 7.01625 5.78308V5.78311V8.57311C7.02127 8.61314 7.05628 8.63813 7.09627 8.63311H8.08125C8.12625 8.63311 8.14627 8.61314 8.14627 8.56312V6.01312C8.21625 5.93311 8.30625 5.87311 8.40127 5.82811C8.53627 5.76811 8.67628 5.72311 8.82127 5.69311C8.99625 5.65313 9.18127 5.63812 9.36127 5.64314C9.41625 5.64314 9.44128 5.62814 9.44128 5.58811V4.59314C9.43627 4.55813 9.40627 4.53314 9.37125 4.53811C9.10627 4.53811 8.84128 4.60313 8.61127 4.73311C8.40781 4.84204 8.2264 4.98786 8.07628 5.16314C8.07628 5.09812 8.07127 5.03813 8.06625 4.98314C8.06128 4.93313 8.05125 4.87814 8.04127 4.82812C8.03625 4.78312 8.02627 4.74314 8.01127 4.70311C7.99627 4.65811 7.95628 4.62314 7.90627 4.62314Z" fill="white"/>
</svg>
