<svg width="12" height="12" viewBox="0 0 12 12" fill="none" xmlns="http://www.w3.org/2000/svg">
<path d="M3.04088 1.59723L6 1.28711L8.95913 1.59761L11.25 4.64973L6 10.7124L0.75 4.64973L3.04088 1.59723Z" fill="#FDB300"/>
<path d="M2.87663 4.64844L6 10.7129L0.75 4.64844H2.87663ZM9.12338 4.64844L6 10.7129L11.25 4.64844H9.12338Z" fill="#D2D2D2"/>
<path d="M2.87695 4.64844H9.1237L6.00033 10.7129L2.87695 4.64844Z" fill="#E4E4E4"/>
<path d="M6.00033 1.28711L3.0412 1.59723L2.87695 4.64786L6.00033 1.28711ZM6.00033 1.28711L8.95945 1.59723L9.1237 4.64786L6.00033 1.28711Z" fill="white"/>
<path d="M11.25 4.64828L8.95913 1.59766L9.12338 4.64828H11.25ZM0.75 4.64828L3.04088 1.59766L2.87663 4.64828H0.75Z" fill="#F3F3F3"/>
<path d="M6.00033 1.28711L2.87695 4.64786H9.1237L6.00033 1.28711Z" fill="#EEEEEE"/>
</svg>
