<svg width="12" height="12" viewBox="0 0 12 12" fill="none" xmlns="http://www.w3.org/2000/svg">
<g clip-path="url(#clip0_429_2153)">
<path fill-rule="evenodd" clip-rule="evenodd" d="M9.87497 0.150391H2.12503C0.949969 0.150391 0 1.10036 0 2.27542V9.72536C0 10.9004 0.949969 11.8504 2.12503 11.8504H9.87497C11.05 11.8504 12 10.9004 12 9.72536V2.27542C12 1.10036 11.05 0.150391 9.87497 0.150391ZM4.80996 5.70061L6.30996 3.22561C6.31989 3.21558 6.32993 3.19561 6.32496 3.19064C6.32367 3.18472 6.32122 3.1791 6.31775 3.17412C6.31428 3.16915 6.30986 3.1649 6.30475 3.16164C6.29963 3.15838 6.29392 3.15617 6.28794 3.15513C6.28197 3.15409 6.27584 3.15424 6.26992 3.15558H5.21496C5.18992 3.15061 5.16996 3.15558 5.14989 3.16561C5.13489 3.17564 5.12496 3.19561 5.11989 3.21558C5.07534 3.29864 5.03079 3.38333 4.98591 3.46867C4.91999 3.59397 4.85336 3.72066 4.78492 3.84558C4.66989 4.05558 4.55486 4.26558 4.44489 4.47558C4.33492 4.68558 4.22496 4.90064 4.11996 5.12058H4.10993C4.00493 4.90561 3.89496 4.69561 3.77496 4.48561C3.67303 4.31446 3.57783 4.14332 3.48114 3.96948C3.45918 3.93002 3.43716 3.89042 3.41496 3.85064C3.29992 3.63558 3.18996 3.42061 3.09489 3.20564C3.07989 3.18558 3.06489 3.17058 3.04492 3.16064C3.02496 3.15558 2.99992 3.15061 2.97489 3.15061H1.83996C1.81989 3.15061 1.79992 3.15558 1.78989 3.17058C1.77996 3.18061 1.78492 3.20058 1.79992 3.22064L3.31493 5.78564L1.75989 8.33564C1.75452 8.34361 1.75087 8.35261 1.74915 8.36207C1.74744 8.37153 1.74772 8.38124 1.74996 8.39058C1.74996 8.40951 1.75853 8.40839 1.77135 8.40672C1.77548 8.40618 1.78005 8.40558 1.78492 8.40558H2.88489C2.93992 8.40558 2.97996 8.40061 2.99992 8.35064C3.07618 8.21473 3.15239 8.07445 3.22862 7.93414C3.26738 7.86279 3.30615 7.79144 3.34492 7.72064C3.45735 7.50681 3.5707 7.29347 3.68496 7.08061L3.68648 7.07777C3.80091 6.86375 3.91539 6.64963 4.01993 6.43561H4.02996C4.14576 6.64794 4.26156 6.85547 4.37736 7.063L4.38996 7.08558C4.50996 7.30064 4.62489 7.51064 4.72989 7.71558C4.78239 7.82058 4.83616 7.92434 4.88993 8.0281C4.94369 8.13186 4.99746 8.23561 5.04996 8.34061C5.08493 8.39058 5.13996 8.39564 5.21992 8.39564H6.36489C6.3765 8.39368 6.38662 8.39473 6.39496 8.39559C6.40816 8.39695 6.41688 8.39785 6.41993 8.38561C6.42489 8.36564 6.41993 8.34558 6.40989 8.32561L4.80996 5.70061ZM7.54493 8.27564C7.87989 8.43061 8.24992 8.50561 8.61996 8.50064C8.87992 8.50064 9.13492 8.47561 9.38993 8.43061C9.66967 8.3812 9.94302 8.3007 10.2049 8.19061C10.24 8.17561 10.255 8.14561 10.255 8.11064C10.2541 8.09642 10.2533 8.08178 10.2524 8.06677C10.2481 7.99202 10.2432 7.90802 10.2349 7.82058C10.2344 7.81057 10.234 7.80064 10.2335 7.7908C10.2291 7.69248 10.225 7.60239 10.225 7.52058V2.75058C10.2199 2.73061 10.1999 2.71064 10.1749 2.71561H9.15996C9.12489 2.71561 9.10989 2.73558 9.10989 2.77064V4.35061C9.08242 4.34834 9.05704 4.3471 9.03329 4.34595C9.00517 4.34458 8.97932 4.34333 8.95492 4.34058C8.90993 4.33561 8.87496 4.33561 8.84993 4.33561H8.84993C8.35493 4.33561 7.93492 4.43058 7.58496 4.62558C7.25496 4.80558 6.97989 5.07558 6.78996 5.40061C6.60489 5.72058 6.50992 6.08564 6.51489 6.45558C6.51489 6.91064 6.60489 7.29061 6.78996 7.59558C6.96996 7.89061 7.22993 8.13061 7.54493 8.27564ZM9.10989 5.30058V7.50061C9.04989 7.52058 8.99496 7.53061 8.92989 7.52564C8.86492 7.53061 8.79489 7.53558 8.71989 7.53558C8.57992 7.53558 8.43996 7.51561 8.30496 7.47061C8.17769 7.43112 8.0613 7.36267 7.96492 7.27064C7.86489 7.17061 7.78989 7.05061 7.73992 6.91561C7.67948 6.75082 7.65063 6.57612 7.65489 6.40064C7.65489 6.14058 7.70992 5.92561 7.81989 5.76558C7.92778 5.6081 8.07409 5.48076 8.24496 5.39564C8.41989 5.30564 8.61489 5.26561 8.80989 5.26561C8.86502 5.2664 8.92008 5.26975 8.97489 5.27564C9.01908 5.28052 9.06326 5.29028 9.10744 5.30004L9.10989 5.30058Z" fill="white"/>
</g>
<defs>
<clipPath id="clip0_429_2153">
<rect width="12" height="12" fill="white"/>
</clipPath>
</defs>
</svg>
